# xmcd
#
# Track frame offsets:
# 150
# 3093
# 15923
# 29756
# 40849
# 57287
# 68266
# 81385
# 94821
# 105359
# 116657
# 129068
# 142493
# 151712
#
# Disc length: 2254 seconds
#
#
# Revision: 0
# Processed by: cddbd v1.4PL0 Copyright (c) Steve Scherf et al.
# Submitted via: FreeRIP 2.00 
#
DISCID=a408cc0e
DTITLE=The Cherryholmes Family Band - Dressed for Success
DYEAR=2002
DGENRE=Bluegrass
TTITLE0=Bluegrass Breakdown
TTITLE1=My Little Georgia Rose
TTITLE2=The Mansion
TTITLE3=Zoot Suit
TTITLE4=Honey, You Don't Know My Mind
TTITLE5=Meet Me on the Mountain
TTITLE6=Family Reunion
TTITLE7=Old Dangerfield
TTITLE8=Smokey Mountain Smoke
TTITLE9=Last Old Shovel
TTITLE10=Frankie Belle/Bonapart's Retreat
TTITLE11=I'm the Boss (Of This Here House)
TTITLE12=The Fishhook Breakdown
TTITLE13=If That's the Way You Feel
EXTD=
EXTT0=
EXTT1=
EXTT2=
EXTT3=
EXTT4=
EXTT5=
EXTT6=
EXTT7=
EXTT8=
EXTT9=
EXTT10=
EXTT11=
EXTT12=
EXTT13=
PLAYORDER=
